<?xml version="1.0" standalone="no"?>
<!DOCTYPE svg PUBLIC "-//W3C//DTD SVG 20010904//EN"
 "http://www.w3.org/TR/2001/REC-SVG-20010904/DTD/svg10.dtd">
<svg version="1.0" xmlns="http://www.w3.org/2000/svg"
 width="512.000000pt" height="512.000000pt" viewBox="0 0 512.000000 512.000000"
 preserveAspectRatio="xMidYMid meet">
<metadata>
Created by potrace 1.14, written by Peter Selinger 2001-2017
</metadata>
<g transform="translate(0.000000,512.000000) scale(0.100000,-0.100000)"
fill="#000000" stroke="none">
<path d="M2360 5113 c-241 -38 -493 -133 -693 -260 -37 -24 -69 -43 -71 -43
-2 0 -6 33 -9 73 -12 134 -56 194 -135 183 -49 -7 -132 -57 -202 -122 -109
-102 -224 -323 -291 -559 -12 -44 -25 -83 -29 -88 -3 -4 -33 -14 -66 -22 -403
-104 -441 -503 -112 -1160 78 -156 148 -275 269 -460 l98 -150 -18 -100 c-10
-55 -21 -119 -25 -143 -6 -45 -30 -180 -47 -268 -9 -49 -13 -54 -73 -93 -83
-53 -166 -145 -207 -229 -29 -59 -41 -72 -103 -112 -124 -80 -263 -231 -372
-405 -26 -42 -86 -168 -113 -240 -13 -33 -27 -69 -32 -80 -9 -21 -54 -189 -64
-240 -22 -118 -34 -189 -40 -244 -3 -35 -8 -78 -11 -95 -2 -17 -6 -82 -9 -143
l-4 -113 1614 0 c888 0 1615 3 1615 8 0 22 -89 297 -137 422 -201 523 -474
902 -811 1125 -64 43 -76 56 -103 112 -17 35 -51 89 -76 120 -49 60 -49 59
-58 213 -3 58 -8 133 -11 166 l-5 61 63 7 c35 4 63 7 63 7 0 -5 186 54 227 72
164 73 345 233 422 372 9 17 21 37 26 45 14 23 50 108 72 170 71 206 74 502 7
735 -29 101 -33 113 -92 254 l-35 84 52 41 c220 174 388 440 389 617 1 194
-194 382 -478 461 -51 14 -109 20 -215 22 -80 2 -156 1 -170 -1z"/>
<path d="M4708 4134 c-2 -1 -32 -5 -68 -8 -36 -3 -83 -8 -105 -10 -22 -2 -67
-7 -100 -11 -33 -3 -76 -8 -95 -10 -49 -5 -126 -14 -185 -20 -72 -7 -441 -44
-500 -50 -27 -3 -66 -8 -85 -10 -33 -4 -57 -7 -190 -20 -106 -11 -186 -74
-209 -164 -5 -20 -12 -155 -16 -301 -3 -146 -8 -341 -10 -435 -2 -93 -7 -276
-10 -405 -10 -414 -14 -560 -22 -815 -12 -421 -11 -533 10 -586 33 -86 136
-164 242 -184 62 -11 1123 -6 1167 6 45 12 102 59 125 103 14 26 39 143 58
261 2 17 6 39 8 50 4 18 11 61 23 135 3 14 9 48 14 75 5 28 12 66 14 85 8 48
16 92 21 110 2 8 7 38 10 65 4 28 10 68 15 90 5 22 16 85 25 140 9 55 20 120
25 145 5 25 12 61 15 80 2 19 7 49 10 65 3 17 10 55 15 85 6 30 12 65 14 76 2
12 7 37 10 55 3 19 8 45 10 59 3 14 14 81 26 150 26 154 24 147 43 250 9 47
19 105 22 130 3 25 8 52 10 60 2 8 7 29 9 45 6 34 32 182 47 265 19 104 19
162 -1 200 -17 34 -211 214 -257 239 -19 9 -127 14 -135 5z"/>
</g>
</svg>
